PathFileType	4	(X/Y/Z)	/Users/niels/Desktop/University/Third Semester/Perception and Action/Exam/Gymnastics Motion Tracking/Code for Gym Tracking/Scripts/Analyzed Data/Start Salto/st_salto_good_id1_1_Sports2D/st_salto_good_id1_1_Sports2D_px_person00.trc
DataRate	CameraRate	NumFrames	NumMarkers	Units	OrigDataRate	OrigDataStartFrame	OrigNumFrames
29.763779527559056	29.763779527559056	8	22	m	29.763779527559056	95	127
Frame#	Time	Hip			RHip			RKnee			RAnkle			RBigToe			RSmallToe			RHeel			LHip			LKnee			LAnkle			LBigToe			LSmallToe			LHeel			Neck			Head			Nose			RShoulder			RElbow			RWrist			LShoulder			LElbow			LWrist		
		X1	Y1	Z1	X2	Y2	Z2	X3	Y3	Z3	X4	Y4	Z4	X5	Y5	Z5	X6	Y6	Z6	X7	Y7	Z7	X8	Y8	Z8	X9	Y9	Z9	X10	Y10	Z10	X11	Y11	Z11	X12	Y12	Z12	X13	Y13	Z13	X14	Y14	Z14	X15	Y15	Z15	X16	Y16	Z16	X17	Y17	Z17	X18	Y18	Z18	X19	Y19	Z19	X20	Y20	Z20	X21	Y21	Z21	X22	Y22	Z22
95	3.191798941798942	1.4344550434560521	-0.4525817569230642	0.0	1.4528867586932215	-0.4380673238898001	0.0	1.605171251306325	-0.4301794944774252	0.0	1.7393883034609996	-0.5078671423099935	0.0	1.7986857545009092	-0.4604381743095589	0.0	1.804451934696898	-0.47234012131444963	0.0	1.7551004677176334	-0.5257804363611385	0.0	1.4343658027014639	-0.4743412136586284	0.0	1.535457702766937	-0.5691903021625091	0.0	1.5731000561029456	-0.7115275801356262	0.0	1.6197104736199046	-0.7415440990453294	0.0	1.6110716822760143	-0.7436322781939295	0.0	1.5746720742842595	-0.7277000617506866	0.0	1.2918943182876743	-0.31705548265082706	0.0	1.2727027504695003	-0.24790647261202717	0.0	1.3126519295068821	-0.2638964092724113	0.0	1.3090890694670032	-0.3181528920628437	0.0	1.3504225717208405	-0.22935215881174964	0.0	1.3275564257824404	-0.15278010467603848	0.0	1.2818523061189269	-0.3496051165441936	0.0	1.3290853825867661	-0.27201520112572414	0.0	1.3126218957799256	-0.1904875985843566	0.0
96	3.2253968253968255	1.4445234957033175	-0.4576815611911857	0.0	1.4652727756704471	-0.4425804256332851	0.0	1.6180026751735699	-0.4468853908224412	0.0	1.7455091061260688	-0.5352959118211024	0.0	1.8088663898750916	-0.4925141717795912	0.0	1.8140603227873142	-0.5053026419175277	0.0	1.7599163513612814	-0.5552803727345359	0.0	1.4433184054204167	-0.48014946607484255	0.0	1.5380190935558464	-0.5817634445734085	0.0	1.5698117745231102	-0.7263314380920117	0.0	1.616014119940206	-0.7581591213662454	0.0	1.6061492439748237	-0.7586516844304177	0.0	1.570045428049068	-0.7426403373221574	0.0	1.3063864404997299	-0.31830540812977115	0.0	1.2886040605539029	-0.24782963788349174	0.0	1.327565220817392	-0.2649949585960609	0.0	1.3246555926225354	-0.3188811056432764	0.0	1.3675197608034972	-0.23191108518877368	0.0	1.3425804099959253	-0.15797899514466304	0.0	1.2946983159833472	-0.3521889140580538	0.0	1.3434872949713643	-0.28510119887196106	0.0	1.3287195134421124	-0.20253022653409025	0.0
97	3.258994708994709	1.4544340395978452	-0.4630919649099309	0.0	1.4777408378316246	-0.44742576195754136	0.0	1.6297732320652238	-0.4639874912508812	0.0	1.7496257689713022	-0.5623634455497414	0.0	1.8159666181379104	-0.52555914333585	0.0	1.82035093724053	-0.5388790825044804	0.0	1.762340201765993	-0.5839425582926067	0.0	1.4515961070430756	-0.48608398585370416	0.0	1.540465650251472	-0.5933763646881994	0.0	1.5674874295351522	-0.7398459014465613	0.0	1.6133863502111268	-0.772200314892279	0.0	1.6021328734196536	-0.7716221027100609	0.0	1.5664497239386088	-0.7566736608193353	0.0	1.3209651127456625	-0.3199775785240563	0.0	1.304704912896794	-0.24785398818874005	0.0	1.3434490989379337	-0.26669271581819226	0.0	1.3412035693278193	-0.31949089155349153	0.0	1.385303865024842	-0.23484751084343147	0.0	1.3579356325009588	-0.16375036119246475	0.0	1.3066035949896702	-0.35523917130333155	0.0	1.3542991546200254	-0.3010337190404514	0.0	1.3434172383876557	-0.2199538268017836	0.0
98	3.2925925925925927	1.4646027331888574	-0.46876475386244687	0.0	1.4906234715933548	-0.4527015458677543	0.0	1.6407294576409843	-0.48203626014360934	0.0	1.7519727291705633	-0.5897528521857162	0.0	1.8202067744365502	-0.5601623832323737	0.0	1.8236820274760155	-0.5736490292834517	0.0	1.7626078052618381	-0.6123979740983343	0.0	1.4596692124585187	-0.49210081107514214	0.0	1.5431797200066733	-0.6044601796903741	0.0	1.5661401765488983	-0.7521420760997962	0.0	1.6117926855397795	-0.7835464095892366	0.0	1.5990778445030558	-0.7825001143977524	0.0	1.5641609918949473	-0.7698731343219213	0.0	1.336026445565149	-0.32212924606686183	0.0	1.3214290085417446	-0.24834954970025044	0.0	1.3605820891509308	-0.26916961224970454	0.0	1.3592173036493502	-0.32003432518159874	0.0	1.4044334847723177	-0.23833709468724912	0.0	1.3743175010963482	-0.17013385923196528	0.0	1.3182778299774343	-0.35874835605508165	0.0	1.3620781593926143	-0.3177379037914227	0.0	1.3569868019706415	-0.24147075162446707	0.0
99	3.3261904761904764	1.4753212940284113	-0.47462760193806347	0.0	1.5039165348617927	-0.45852553682139857	0.0	1.6509673457746574	-0.5012297304209977	0.0	1.7528400334681091	-0.6176547820911658	0.0	1.8220410765717292	-0.5961289916443288	0.0	1.8246315652856282	-0.6094875767950174	0.0	1.7610714795424625	-0.6409534010238019	0.0	1.4680152272436275	-0.4980475038831407	0.0	1.5465517132682005	-0.6151671741454628	0.0	1.5655951313308505	-0.7630410183259693	0.0	1.6107472159255085	-0.7920944246015835	0.0	1.5965074880052477	-0.791066264585565	0.0	1.563193465952728	-0.7818938683625105	0.0	1.3517753291905479	-0.3248374836494884	0.0	1.3389876003716732	-0.24958475505353658	0.0	1.3787756970038336	-0.27251356589099435	0.0	1.3785773960167071	-0.32097589944314786	0.0	1.425221521329132	-0.24278738980150003	0.0	1.392438628480547	-0.17733037238211086	0.0	1.330612496307942	-0.36240691490647736	0.0	1.3683309022886831	-0.33245646164497306	0.0	1.3698497613049028	-0.2639781468522636	0.0
100	3.35978835978836	1.4865493795611093	-0.4805546145358184	0.0	1.5172129121073443	-0.46487078510754287	0.0	1.6601987318496512	-0.5211767879397181	0.0	1.7524093621122334	-0.6455867778284352	0.0	1.821916529807693	-0.6322788210613057	0.0	1.8237049820197289	-0.6451882925716201	0.0	1.7580322822224688	-0.669294844666622	0.0	1.476787733610496	-0.5036593894684567	0.0	1.550845884299101	-0.6252577656603905	0.0	1.5656721798783129	-0.7721956318691608	0.0	1.609591389785006	-0.7978882567820045	0.0	1.5938994764565138	-0.7972301141505457	0.0	1.563325189886012	-0.7921705268453738	0.0	1.3680953957604123	-0.32799707964906166	0.0	1.3572342658806487	-0.25145563183429614	0.0	1.3974074710519278	-0.276520516836581	0.0	1.39869982323149	-0.32264460529710326	0.0	1.4474382421191558	-0.24846594074227446	0.0	1.4125492747160355	-0.1853887512396209	0.0	1.3440634714059405	-0.36595020103193127	0.0	1.3744895384710103	-0.34397970870753597	0.0	1.3822786481074967	-0.28445814632964356	0.0
101	3.3933862433862436	1.4979885476582733	-0.4864088606653743	0.0	1.5299406882944924	-0.4714781144952899	0.0	1.6678948640829159	-0.5410880104963739	0.0	1.7507172954109131	-0.6725915285734742	0.0	1.820120846406734	-0.6668076908816365	0.0	1.821190473611683	-0.6788775511796159	0.0	1.753710052353326	-0.6965735228803293	0.0	1.485783992185334	-0.5086663455505185	0.0	1.5561289414767558	-0.634239188370653	0.0	1.5662112480460453	-0.7793050482204963	0.0	1.6079529637707595	-0.8012151994985098	0.0	1.5911936072560104	-0.8011707269361996	0.0	1.5641047283961298	-0.8002477034238082	0.0	1.3846235556507405	-0.33133596472664717	0.0	1.3757203065085242	-0.2535116467315446	0.0	1.4156949255159592	-0.28068815508951434	0.0	1.4188899727492204	-0.32494314344926895	0.0	1.4704542889760979	-0.2552725638146845	0.0	1.4342881558451008	-0.19405130569061882	0.0	1.3584645953776975	-0.36941603070553286	0.0	1.3813298996106755	-0.3536365153283185	0.0	1.394507521349248	-0.3016325424362196	0.0
102	3.4269841269841272	1.5094164730154682	-0.49212837190786324	0.0	1.5417701625913869	-0.4780238129918668	0.0	1.6737105700305541	-0.5603256216654299	0.0	1.7477392716445412	-0.6977804405558297	0.0	1.81674614140017	-0.6981799840488793	0.0	1.8171310964023033	-0.7091294528703048	0.0	1.7483164352817662	-0.7218845473815202	0.0	1.494770958203585	-0.5129161850159905	0.0	1.562355426089111	-0.6416836485811691	0.0	1.567046348150512	-0.7843213225383631	0.0	1.6060977863027455	-0.8025355268947774	0.0	1.5888744972436086	-0.8032127266216738	0.0	1.564975980446164	-0.8059882712618174	0.0	1.4010779376791205	-0.33460882434878175	0.0	1.3940202218398283	-0.2552971078737696	0.0	1.433193706848072	-0.2844475577710109	0.0	1.4387202588783083	-0.32750943903010776	0.0	1.493759638183982	-0.2629168477392143	0.0	1.4571529289272875	-0.20297474475541097	0.0	1.3735205040060257	-0.3730484710454038	0.0	1.3892936733223218	-0.3639429292945654	0.0	1.4071711644098874	-0.31632720749982696	0.0
